<?xml version="1.0" encoding="utf-8"?>
<!-- Generator: Adobe Illustrator 17.1.0, SVG Export Plug-In . SVG Version: 6.00 Build 0)  -->
<!DOCTYPE svg PUBLIC "-//W3C//DTD SVG 1.1//EN" "http://www.w3.org/Graphics/SVG/1.1/DTD/svg11.dtd">
<svg version="1.1" id="Wonder-Woman" xmlns="http://www.w3.org/2000/svg" xmlns:xlink="http://www.w3.org/1999/xlink" x="0px"
	 y="0px" viewBox="0 0 1010 492.6811" enable-background="new 0 0 1010 492.6811" xml:space="preserve">
<path id="wonder-woman-wonder-woman" fill="#231F20" d="M712.5713,20.7046c-52.834,0-73.5996,18.0224-88.5332,45.1001
	c0,0-29.8584,54.8852-42.2881,77.7524L505.0249,0l-76.772,143.5586c-12.4292-22.8667-42.2905-77.7559-42.2978-77.772
	c-14.9199-27.0596-35.6856-45.082-88.5225-45.082H0L3.3257,33.539c0.647,2.5157,16.1997,60.9312,59.3432,75.0362
	c5.4082,17.1748,23.7251,63.8735,64.6622,72.2358c6.4848,19.1221,28.5112,70.8555,76.4804,70.8555h82.855
	c5.8628,0,22.2363,14.0957,28.0918,25.8144c6.7549,13.5059,104.3628,196.4102,105.3438,198.2442l9.0463,16.9521l75.8765-141.8496
	l75.8306,141.8535l9.0429-16.956c0.9805-1.834,98.6309-184.8194,105.3506-198.2442c5.8555-11.7187,22.2285-25.8144,28.0917-25.8144
	h82.8477c47.9834,0,69.999-51.7334,76.4804-70.8555c40.9551-8.3662,59.2618-55.063,64.6622-72.2378
	c43.1474-14.103,58.6962-72.5185,59.3427-75.0322L1010,20.7046H712.5713z M806.1885,231.1357h-82.8477
	c-17.0273,0-38.8906,22.0054-46.4629,37.1567c-5.0947,10.1905-66.4598,125.334-96.0439,180.8077l-75.8091-141.9776l-75.855,141.9815
	c-24.9511-46.7901-90.8037-170.3262-96.0449-180.8116c-7.5718-15.1513-29.4351-37.1567-46.4585-37.1567h-82.855
	c-29.4814,0-46.6186-31.1973-54.0097-49.0561H307.375c19.3364,0,43.7085,13.7885,48.6865,22.2915
	c26.9942,51.8901,60.0894,115.3579,62.3384,119.6577l8.9932,17.2334l77.6318-145.149l77.5855,145.1558l8.9863-17.2363
	c2.2529-4.3037,35.3515-67.7715,62.3271-119.6299c5.7783-10.8496,30.8145-22.3232,48.709-22.3232h157.5615
	C852.8184,199.9365,835.6982,231.1357,806.1885,231.1357z M293.2861,111.6577c8.9615,0,22.0054,13.6015,28.1026,25.8071
	c1.3896,2.791,6.2114,12.1289,15.8051,30.6099c-13.1826-5.9629-25.6118-6.5293-29.8188-6.5293H140.0234
	c-29.8901,0-47.0415-31.8194-54.3828-49.9517C114.2549,111.6113,248.771,111.6469,293.2861,111.6577z M688.6143,137.4633
	c5.9736-11.934,19.5537-25.8056,28.1035-25.8056c44.5117-0.0108,179.0205-0.0464,207.6416-0.064
	c-7.3408,18.1323-24.4893,49.9551-54.376,49.9551H702.6328c-8.3574,0-19.7783,2.0469-29.7666,6.4209
	C682.1621,150.0576,687.2148,140.2719,688.6143,137.4633z M670.2588,128.2744c-2.2383,4.4609-69.7432,134.2124-87.876,169.0229
	c-16.416-30.6855-74.1494-138.5732-74.1494-138.5732l-3.2085-5.9927l-3.2085,5.9907c0,0-57.8188,107.9717-74.1992,138.5752
	c-18.0044-34.5693-85.5664-164.4267-87.8652-169.0175c-7.5684-15.146-29.4317-37.1495-46.4624-37.1495H82.0308
	c-29.979,0-47.042-31.789-54.3262-49.8984h269.728c42.9092,0,58.8032,13.186,70.5288,34.4434l60.4517,111.1372L505.0249,43.563
	l76.562,143.2514l60.4444-111.1211c11.7333-21.2754,27.623-34.4614,70.54-34.4614h269.7275
	c-7.2773,18.1074-24.3359,49.8984-54.3261,49.8984H716.7178C699.6758,91.1303,677.8164,113.1338,670.2588,128.2744z"/>
</svg>
